<svg xmlns="http://www.w3.org/2000/svg" xmlns:xlink="http://www.w3.org/1999/xlink" width="276" height="215" viewBox="0 0 276 215">
  <defs>
    <clipPath id="clip-path">
      <rect id="Rectangle_14199" data-name="Rectangle 14199" width="276" height="215" transform="translate(0 -0.203)" fill="#7e838b"/>
    </clipPath>
  </defs>
  <g id="Group_50019" data-name="Group 50019" transform="translate(-0.499 0.15)" opacity="0.2">
    <g id="Group_50018" data-name="Group 50018" transform="translate(0.499 0.053)" clip-path="url(#clip-path)">
      <path id="Path_74615" data-name="Path 74615" d="M570.106,102.464c-.221,3.3-.487,6.6-.655,9.91a227.774,227.774,0,0,1-3.878,32.694c-2.834,14.307-7.267,27.927-15.67,39.838a61.1,61.1,0,0,1-26.009,20.9,95.857,95.857,0,0,1-30.8,7.394c-5.447.458-10.9.882-16.512,1.335V157.911c3.07-.437,6.185-.961,9.317-1.312,9.081-1.017,16.575-4.883,20.842-13.691a69.719,69.719,0,0,0,4.671-13.364c2.551-10.161,2.965-20.622,3.326-31.31H448.58V.111c.6-.038,1.158-.105,1.712-.105Q509.512,0,568.731.005c.458,0,.917.06,1.375.092Z" transform="translate(-293.856 -0.037)" fill="#7e838b"/>
      <path id="Path_74616" data-name="Path 74616" d="M0,.1C.631.063,1.262,0,1.893,0Q60.668,0,119.444,0h2.094c.036.756.092,1.39.093,2.022q0,43.459-.015,86.919a354.6,354.6,0,0,1-2.022,40c-1.585,13.758-4.155,27.281-9.37,40.11-6.641,16.337-17.279,28.679-32.873,35.994a77.39,77.39,0,0,1-22.959,6.89c-8.329,1.076-16.724,1.589-25.091,2.342-.384.034-.773,0-1.265,0-.033-.731-.083-1.32-.083-1.908,0-17.541.016-35.082-.04-52.623,0-1.586.454-1.975,1.912-2.151a130.3,130.3,0,0,0,13.132-2.026c9.208-2.08,14.8-8.547,18.208-17.4a77.526,77.526,0,0,0,4.483-19.469c.674-6.117.951-12.282,1.391-18.427.043-.6.006-1.2.006-2.076H64.817q-31.289,0-62.578,0c-.746,0-1.493-.06-2.239-.092V.1" transform="translate(-0.402 -0.035)" fill="#7e838b"/>
    </g>
  </g>
</svg>
