<svg id="Group_49993" data-name="Group 49993" xmlns="http://www.w3.org/2000/svg" xmlns:xlink="http://www.w3.org/1999/xlink" width="186.014" height="20.542" viewBox="0 0 186.014 20.542">
  <defs>
    <clipPath id="clip-path">
      <rect id="Rectangle_14157" data-name="Rectangle 14157" width="186.014" height="20.542" fill="none"/>
    </clipPath>
  </defs>
  <g id="Group_49961" data-name="Group 49961" clip-path="url(#clip-path)">
    <path id="Path_74590" data-name="Path 74590" d="M39.307,32.7a7.077,7.077,0,0,1-1.581-2.46l-2.849-7.068L33.3,26.528l1.486,4.105a8.927,8.927,0,0,1,.435,1.542.947.947,0,0,1-.435.78,2.589,2.589,0,0,1-1.21.341v.551H40.71v-.582a3.007,3.007,0,0,1-1.4-.569" transform="translate(-19.619 -13.65)" fill="#fff"/>
    <path id="Path_74591" data-name="Path 74591" d="M22.894,30.561a2.279,2.279,0,0,1-1.018-.26.62.62,0,0,1-.3-.505,2.339,2.339,0,0,1,.226-.824l.307-.653,0,0L25.967,19.3l-.5-1.083L21.1,28.413a5.606,5.606,0,0,1-1.15,1.809,2.326,2.326,0,0,1-1.036.348v.358h3.983Z" transform="translate(-11.142 -10.731)" fill="#ee3d23"/>
    <path id="Path_74592" data-name="Path 74592" d="M3.791,18.5a3.524,3.524,0,0,1,.338-1.239L9.8,4.334l2.541,5.573L13.9,6.549,10.9,0H10.36L3.073,16.42a8.42,8.42,0,0,1-1.727,2.717A3.119,3.119,0,0,1,0,19.62V20.2H5.678v-.561a3.269,3.269,0,0,1-1.437-.38.934.934,0,0,1-.45-.759" fill="#fff"/>
    <path id="Path_74593" data-name="Path 74593" d="M93.857,32.7a7.077,7.077,0,0,1-1.581-2.46l-2.849-7.068-1.578,3.359,1.486,4.105a8.927,8.927,0,0,1,.435,1.542.947.947,0,0,1-.435.78,2.589,2.589,0,0,1-1.21.341v.551H95.26v-.582a3.008,3.008,0,0,1-1.4-.569" transform="translate(-51.758 -13.65)" fill="#fff"/>
    <path id="Path_74594" data-name="Path 74594" d="M77.445,30.561a2.279,2.279,0,0,1-1.018-.26.62.62,0,0,1-.3-.505,2.339,2.339,0,0,1,.226-.824l.307-.653,0,0L80.518,19.3l-.5-1.083-4.373,10.2A5.606,5.606,0,0,1,74.5,30.222a2.326,2.326,0,0,1-1.036.348v.358h3.983Z" transform="translate(-43.282 -10.731)" fill="#ee3d23"/>
    <path id="Path_74595" data-name="Path 74595" d="M58.341,18.5a3.524,3.524,0,0,1,.338-1.239L64.345,4.334l2.541,5.573L68.45,6.549,65.445,0H64.91L57.623,16.42A8.419,8.419,0,0,1,55.9,19.137a3.119,3.119,0,0,1-1.346.483V20.2h5.678v-.561a3.269,3.269,0,0,1-1.437-.38.934.934,0,0,1-.45-.759" transform="translate(-32.139)" fill="#fff"/>
    <path id="Path_74596" data-name="Path 74596" d="M254.861,32.7a7.076,7.076,0,0,1-1.581-2.46l-2.849-7.068-1.578,3.359,1.486,4.105a8.926,8.926,0,0,1,.436,1.542.947.947,0,0,1-.436.78,2.589,2.589,0,0,1-1.21.341v.551h7.135v-.582a3.007,3.007,0,0,1-1.4-.569" transform="translate(-146.617 -13.65)" fill="#fff"/>
    <path id="Path_74597" data-name="Path 74597" d="M238.448,30.561a2.277,2.277,0,0,1-1.018-.26.62.62,0,0,1-.3-.505,2.339,2.339,0,0,1,.226-.824l.306-.653,0,0,3.858-9.017-.5-1.083-4.373,10.2a5.62,5.62,0,0,1-1.15,1.809,2.328,2.328,0,0,1-1.037.348v.358h3.983Z" transform="translate(-138.14 -10.731)" fill="#ee3d23"/>
    <path id="Path_74598" data-name="Path 74598" d="M219.345,18.5a3.524,3.524,0,0,1,.338-1.239l5.666-12.923,2.541,5.573,1.564-3.358-3-6.549h-.535l-7.287,16.42a8.419,8.419,0,0,1-1.727,2.717,3.119,3.119,0,0,1-1.346.483V20.2h5.678v-.561a3.269,3.269,0,0,1-1.437-.38.934.934,0,0,1-.45-.759" transform="translate(-126.998)" fill="#fff"/>
    <path id="Path_74599" data-name="Path 74599" d="M378.709,32.7a7.071,7.071,0,0,1-1.58-2.46l-2.849-7.068L372.7,26.528l1.485,4.105a8.927,8.927,0,0,1,.435,1.542.947.947,0,0,1-.435.78,2.589,2.589,0,0,1-1.21.341v.551h7.135v-.582a3.007,3.007,0,0,1-1.4-.569" transform="translate(-219.584 -13.65)" fill="#fff"/>
    <path id="Path_74600" data-name="Path 74600" d="M362.3,30.561a2.279,2.279,0,0,1-1.018-.26.62.62,0,0,1-.3-.505,2.338,2.338,0,0,1,.226-.824l.307-.653,0,0,3.858-9.017-.5-1.083-4.373,10.2a5.6,5.6,0,0,1-1.149,1.809,2.326,2.326,0,0,1-1.036.348v.358H362.3Z" transform="translate(-211.107 -10.731)" fill="#ee3d23"/>
    <path id="Path_74601" data-name="Path 74601" d="M343.193,18.5a3.524,3.524,0,0,1,.338-1.239L349.2,4.334l2.541,5.573L353.3,6.549,350.3,0h-.535l-7.287,16.42a8.42,8.42,0,0,1-1.727,2.717,3.119,3.119,0,0,1-1.346.483V20.2h5.678v-.561a3.269,3.269,0,0,1-1.437-.38.934.934,0,0,1-.45-.759" transform="translate(-199.965)" fill="#fff"/>
    <path id="Path_74602" data-name="Path 74602" d="M128.21,19.358a3.876,3.876,0,0,1-1.058-.946l-5.828-7.178A7.823,7.823,0,0,0,124.948,9.7a4.325,4.325,0,0,0,1.5-3.527A4.682,4.682,0,0,0,123.1,1.5,12.269,12.269,0,0,0,118.8.839h-8.341v.945l.191.015c1.252.1,1.738.354,1.926.547s.407.675.407,1.885V16.954c0,1.447-.2,1.992-.368,2.193s-.639.459-1.967.583l-.189.018v.943h8.579v-.944l-.191-.016a3.787,3.787,0,0,1-2.039-.528c-.194-.17-.424-.64-.424-1.909V11.7l.986-.055,7.344,9.046h5.038v-.942l-.188-.019a3.493,3.493,0,0,1-1.354-.372M116.383,3.182c0-.351.065-.586.184-.662a3.4,3.4,0,0,1,1.416-.146,7.2,7.2,0,0,1,2.884.482,3.244,3.244,0,0,1,1.97,3.289,3.348,3.348,0,0,1-2.207,3.414,14.173,14.173,0,0,1-4.247.636Z" transform="translate(-65.079 -0.494)" fill="#fff"/>
    <path id="Path_74603" data-name="Path 74603" d="M175.98,1.783l.19.017a3.341,3.341,0,0,1,1.965.551c.436.444.657,1.449.657,2.99v9.172L167.76.839h-5.321v.955l.2.006a4.075,4.075,0,0,1,1.285.194,3.075,3.075,0,0,1,1.016.88l.351.414V16.154c0,1.859-.255,2.564-.47,2.829a3.383,3.383,0,0,1-2.2.748l-.187.019v.942h7.316V19.75l-.186-.02a3.282,3.282,0,0,1-1.924-.583C167.218,18.7,167,17.7,167,16.154V5.309l12.687,15.727h.811V5.365c0-1.845.276-2.551.508-2.819a3.258,3.258,0,0,1,2.1-.747l.187-.019V.839H175.98Z" transform="translate(-95.704 -0.494)" fill="#fff"/>
    <path id="Path_74604" data-name="Path 74604" d="M307.027,15.3a6.591,6.591,0,0,1-2.573,3.2,14.307,14.307,0,0,1-5.211.625q-1,0-1.364-.014c-.238-.01-.463-.029-.678-.056s-.479-.092-.572-.251a1.317,1.317,0,0,1-.136-.661V4.03c0-.9.16-1.491.474-1.745a3.918,3.918,0,0,1,2.054-.486l.2-.011V.839h-8.708v.947l.194.014c1.287.091,1.783.34,1.974.534s.415.676.415,1.9V17.3c0,1.287-.222,1.745-.408,1.9a3.966,3.966,0,0,1-1.988.53l-.187.019v.941h16.171l1.555-5.509h-1.153Z" transform="translate(-171.16 -0.494)" fill="#fff"/>
    <path id="Path_74605" data-name="Path 74605" d="M406.853.839v.954l.2.007a3.552,3.552,0,0,1,1.218.2.926.926,0,0,1,.645.94,3.139,3.139,0,0,1-.068.567,8.379,8.379,0,0,1-.42,1.469l-3.485,9.451L400.9,3.928c-.15-.394-.244-.654-.281-.782a1.4,1.4,0,0,1-.048-.392.762.762,0,0,1,.52-.807,5.5,5.5,0,0,1,1.455-.147l.205,0V.839h-8.282V1.8l.205,0a3.662,3.662,0,0,1,1.313.2,1.992,1.992,0,0,1,1.048,1.19l1.346,3.527-2.884,7.645L391.443,3.829c-.1-.281-.18-.511-.232-.688a1.822,1.822,0,0,1-.07-.5.687.687,0,0,1,.52-.692,4.575,4.575,0,0,1,1.187-.147l.2-.007V.839h-7.614v.95l.2.011a2.035,2.035,0,0,1,1.736.942,37.045,37.045,0,0,1,2.12,5.183l4.717,13.11h.734L399.31,9.017l3.2,8.522,1.335,3.5h.744l6.171-17.577a2.386,2.386,0,0,1,1.03-1.329,3.224,3.224,0,0,1,1.129-.332l.178-.026V.839Z" transform="translate(-227.086 -0.494)" fill="#fff"/>
  </g>
</svg>
