<svg id="Group_49960" data-name="Group 49960" xmlns="http://www.w3.org/2000/svg" xmlns:xlink="http://www.w3.org/1999/xlink" width="235.444" height="26" viewBox="0 0 235.444 26">
  <defs>
    <clipPath id="clip-path">
      <rect id="Rectangle_14156" data-name="Rectangle 14156" width="235.444" height="26" fill="none"/>
    </clipPath>
  </defs>
  <g id="Group_49959" data-name="Group 49959" clip-path="url(#clip-path)">
    <path id="Path_74574" data-name="Path 74574" d="M40.9,35.229a8.957,8.957,0,0,1-2-3.113L35.3,23.169l-2,4.251,1.88,5.2a11.3,11.3,0,0,1,.551,1.952,1.2,1.2,0,0,1-.551.987,3.277,3.277,0,0,1-1.532.431v.7h9.031v-.736a3.807,3.807,0,0,1-1.775-.72" transform="translate(-15.984 -11.121)" fill="#1e396a"/>
    <path id="Path_74575" data-name="Path 74575" d="M23.952,33.842a2.885,2.885,0,0,1-1.289-.33.785.785,0,0,1-.381-.64,2.96,2.96,0,0,1,.286-1.043L22.957,31l0-.005,4.883-11.413-.629-1.37-5.535,12.91a7.1,7.1,0,0,1-1.455,2.29,2.944,2.944,0,0,1-1.311.44v.453h5.041Z" transform="translate(-9.077 -8.743)" fill="#ee3d23"/>
    <path id="Path_74576" data-name="Path 74576" d="M4.8,23.411a4.461,4.461,0,0,1,.428-1.568L12.4,5.486l3.216,7.054,1.98-4.25L13.79,0h-.677L3.89,20.783A10.657,10.657,0,0,1,1.7,24.222a3.948,3.948,0,0,1-1.7.611v.731H7.187v-.71a4.138,4.138,0,0,1-1.818-.482,1.182,1.182,0,0,1-.57-.961" fill="#1e396a"/>
    <path id="Path_74577" data-name="Path 74577" d="M95.453,35.229a8.957,8.957,0,0,1-2-3.113l-3.606-8.947-2,4.251,1.88,5.2a11.3,11.3,0,0,1,.551,1.952,1.2,1.2,0,0,1-.551.987,3.277,3.277,0,0,1-1.532.431v.7h9.031v-.736a3.807,3.807,0,0,1-1.775-.72" transform="translate(-42.168 -11.121)" fill="#1e396a"/>
    <path id="Path_74578" data-name="Path 74578" d="M78.5,33.842a2.884,2.884,0,0,1-1.289-.33.785.785,0,0,1-.381-.64,2.96,2.96,0,0,1,.286-1.043L77.508,31l0-.005,4.883-11.413-.629-1.37-5.535,12.91a7.1,7.1,0,0,1-1.455,2.29,2.944,2.944,0,0,1-1.311.44v.453H78.5Z" transform="translate(-35.262 -8.743)" fill="#ee3d23"/>
    <path id="Path_74579" data-name="Path 74579" d="M59.349,23.411a4.461,4.461,0,0,1,.428-1.568L66.948,5.486l3.216,7.054,1.98-4.25L68.34,0h-.677L58.44,20.783a10.657,10.657,0,0,1-2.186,3.439,3.948,3.948,0,0,1-1.7.611v.731h7.187v-.71a4.138,4.138,0,0,1-1.818-.482,1.182,1.182,0,0,1-.57-.961" transform="translate(-26.184)" fill="#1e396a"/>
    <path id="Path_74580" data-name="Path 74580" d="M256.457,35.229a8.957,8.957,0,0,1-2-3.113l-3.606-8.947-2,4.251,1.88,5.2a11.3,11.3,0,0,1,.551,1.952,1.2,1.2,0,0,1-.551.987,3.277,3.277,0,0,1-1.532.431v.7h9.031v-.736a3.807,3.807,0,0,1-1.775-.72" transform="translate(-119.449 -11.121)" fill="#1e396a"/>
    <path id="Path_74581" data-name="Path 74581" d="M239.506,33.842a2.882,2.882,0,0,1-1.289-.33.785.785,0,0,1-.381-.64,2.96,2.96,0,0,1,.286-1.043l.388-.827,0-.005L243.4,19.584l-.629-1.37-5.535,12.91a7.113,7.113,0,0,1-1.455,2.29,2.946,2.946,0,0,1-1.312.44v.453h5.041Z" transform="translate(-112.543 -8.743)" fill="#ee3d23"/>
    <path id="Path_74582" data-name="Path 74582" d="M220.353,23.411a4.461,4.461,0,0,1,.428-1.568l7.171-16.357,3.216,7.054,1.98-4.25L229.344,0h-.677l-9.224,20.783a10.657,10.657,0,0,1-2.186,3.439,3.948,3.948,0,0,1-1.7.611v.731h7.187v-.71a4.138,4.138,0,0,1-1.818-.482,1.182,1.182,0,0,1-.57-.961" transform="translate(-103.466)" fill="#1e396a"/>
    <path id="Path_74583" data-name="Path 74583" d="M380.3,35.229a8.95,8.95,0,0,1-2-3.113L374.7,23.169l-2,4.251,1.88,5.2a11.3,11.3,0,0,1,.551,1.952,1.2,1.2,0,0,1-.551.987,3.277,3.277,0,0,1-1.532.431v.7h9.031v-.736a3.807,3.807,0,0,1-1.775-.72" transform="translate(-178.896 -11.121)" fill="#1e396a"/>
    <path id="Path_74584" data-name="Path 74584" d="M363.354,33.842a2.885,2.885,0,0,1-1.289-.33.785.785,0,0,1-.381-.64,2.96,2.96,0,0,1,.286-1.043l.388-.827,0-.005,4.883-11.413-.629-1.37-5.535,12.91a7.1,7.1,0,0,1-1.455,2.29,2.943,2.943,0,0,1-1.311.44v.453h5.041Z" transform="translate(-171.99 -8.743)" fill="#ee3d23"/>
    <path id="Path_74585" data-name="Path 74585" d="M344.2,23.411a4.46,4.46,0,0,1,.428-1.568L351.8,5.486l3.216,7.054L357,8.29,353.192,0h-.677l-9.224,20.783a10.657,10.657,0,0,1-2.186,3.439,3.948,3.948,0,0,1-1.7.611v.731h7.187v-.71a4.138,4.138,0,0,1-1.818-.482,1.182,1.182,0,0,1-.57-.961" transform="translate(-162.913)" fill="#1e396a"/>
    <path id="Path_74586" data-name="Path 74586" d="M132.927,24.279a4.907,4.907,0,0,1-1.34-1.2L124.211,14a9.9,9.9,0,0,0,4.587-1.94,5.475,5.475,0,0,0,1.9-4.464,5.926,5.926,0,0,0-4.236-5.921,15.529,15.529,0,0,0-5.45-.833H110.458v1.2l.242.019c1.585.129,2.2.448,2.438.692s.515.855.515,2.386v16.1c0,1.832-.253,2.521-.466,2.776s-.809.581-2.49.737l-.239.022v1.194h10.858v-1.2l-.241-.021a4.794,4.794,0,0,1-2.581-.668c-.245-.216-.537-.81-.537-2.416V14.586l1.249-.069L128.5,25.966h6.377V24.774l-.238-.024a4.421,4.421,0,0,1-1.713-.471M117.957,3.805c0-.445.082-.742.232-.838a4.3,4.3,0,0,1,1.792-.185,9.117,9.117,0,0,1,3.651.61,4.106,4.106,0,0,1,2.493,4.163,4.238,4.238,0,0,1-2.793,4.322,17.939,17.939,0,0,1-5.375.8Z" transform="translate(-53.02 -0.403)" fill="#1e396a"/>
    <path id="Path_74587" data-name="Path 74587" d="M179.578,2.033l.241.021a4.229,4.229,0,0,1,2.487.7c.552.562.831,1.834.831,3.784v11.61L169.175.839h-6.736V2.047l.256.008a5.157,5.157,0,0,1,1.627.246,3.892,3.892,0,0,1,1.285,1.113l.445.524V20.224c0,2.354-.323,3.246-.6,3.581a4.282,4.282,0,0,1-2.78.946l-.237.024v1.192H171.7V24.776l-.236-.025a4.154,4.154,0,0,1-2.435-.737c-.541-.563-.815-1.837-.815-3.789V6.5L184.273,26.4H185.3V6.567c0-2.335.349-3.229.643-3.568a4.124,4.124,0,0,1,2.659-.945l.237-.024V.839h-9.26Z" transform="translate(-77.971 -0.403)" fill="#1e396a"/>
    <path id="Path_74588" data-name="Path 74588" d="M311.415,19.142c-1.058,2.172-2.153,3.535-3.256,4.052-1.122.525-3.342.791-6.6.791q-1.264,0-1.726-.017c-.3-.012-.587-.036-.859-.071s-.606-.116-.724-.318a1.667,1.667,0,0,1-.173-.837V4.878c0-1.145.2-1.887.6-2.208a4.96,4.96,0,0,1,2.6-.615l.25-.014V.839H290.511v1.2l.246.017c1.629.115,2.257.431,2.5.677s.525.855.525,2.4v16.54c0,1.629-.281,2.208-.516,2.408a5.02,5.02,0,0,1-2.516.67l-.237.024v1.191h20.468l1.968-6.973h-1.459Z" transform="translate(-139.445 -0.403)" fill="#1e396a"/>
    <path id="Path_74589" data-name="Path 74589" d="M412.545.839V2.047l.255.008a4.5,4.5,0,0,1,1.542.254,1.172,1.172,0,0,1,.816,1.19,3.973,3.973,0,0,1-.086.717,10.6,10.6,0,0,1-.532,1.86l-4.411,11.962L405.006,4.749c-.189-.5-.309-.828-.356-.99a1.778,1.778,0,0,1-.061-.5.964.964,0,0,1,.658-1.022,6.959,6.959,0,0,1,1.842-.186l.26,0V.839H396.866V2.052l.26,0a4.635,4.635,0,0,1,1.661.252,2.522,2.522,0,0,1,1.327,1.506l1.7,4.464-3.65,9.677-5.129-13.33c-.132-.356-.228-.647-.294-.87a2.3,2.3,0,0,1-.089-.636.87.87,0,0,1,.658-.876,5.791,5.791,0,0,1,1.5-.186l.255-.008V.839h-9.638v1.2l.25.014a2.575,2.575,0,0,1,2.2,1.192,46.894,46.894,0,0,1,2.684,6.561L396.535,26.4h.929L403,11.19l4.054,10.786,1.69,4.426h.942l7.811-22.248a3.02,3.02,0,0,1,1.3-1.682,4.08,4.08,0,0,1,1.428-.421l.225-.033V.839Z" transform="translate(-185.008 -0.403)" fill="#1e396a"/>
  </g>
</svg>
